<?xml version="1.0" encoding="UTF-8"?>
<svg version="1.1" xmlns="http://www.w3.org/2000/svg" width="64" height="64">
<path d="M0 0 C4.67520705 0.006698 4.67520705 0.006698 7.0234375 2.27734375 C10.25 7.43424855 10.25 7.43424855 10.25 10.5625 C10.91 10.8925 11.57 11.2225 12.25 11.5625 C12.91 12.2225 13.57 12.8825 14.25 13.5625 C15.57 9.2725 16.89 4.9825 18.25 0.5625 C29.14 0.5625 40.03 0.5625 51.25 0.5625 C51.25 2.8725 51.25 5.1825 51.25 7.5625 C47.17276266 9.51281692 43.93307578 9.77831971 39.4375 9.6875 C38.27605469 9.66945313 37.11460938 9.65140625 35.91796875 9.6328125 C34.59732422 9.59800781 34.59732422 9.59800781 33.25 9.5625 C33.25 10.2225 33.25 10.8825 33.25 11.5625 C34.13042969 11.66046875 35.01085938 11.7584375 35.91796875 11.859375 C37.07941406 12.00890625 38.24085937 12.1584375 39.4375 12.3125 C41.16033203 12.52132813 41.16033203 12.52132813 42.91796875 12.734375 C46.75971009 13.68918059 48.6119018 14.6062638 51.25 17.5625 C51.84375 20.875 51.84375 20.875 51.75 24.5625 C51.7396875 25.779375 51.729375 26.99625 51.71875 28.25 C51.22513824 31.73818976 50.75342482 33.13836918 48.25 35.5625 C38.27553549 41.10846782 23.9387524 38.95099262 13.06640625 37.7890625 C4.47227579 37.09771775 -4.23503352 37.17230139 -12.75 38.5625 C-13.28787851 24.55773739 -13.28787851 24.55773739 -10.6796875 18 C-9.43979095 14.7491788 -8.5447691 11.41417236 -7.625 8.0625 C-5.50820564 0.38296696 -5.50820564 0.38296696 0 0 Z M0.25 14.5625 C0.04503906 15.46613281 -0.15992188 16.36976562 -0.37109375 17.30078125 C-0.64050781 18.48027344 -0.90992188 19.65976562 -1.1875 20.875 C-1.45433594 22.04675781 -1.72117187 23.21851563 -1.99609375 24.42578125 C-2.75 27.5625 -2.75 27.5625 -3.75 30.5625 C-2.98429688 30.33240234 -2.98429688 30.33240234 -2.203125 30.09765625 C1.0249338 29.39344597 4.20418001 29.21361796 7.5 29 C8.76328125 28.91621094 10.0265625 28.83242188 11.328125 28.74609375 C12.29234375 28.68550781 13.2565625 28.62492187 14.25 28.5625 C14.25 28.2325 14.25 27.9025 14.25 27.5625 C13.1775 27.3975 12.105 27.2325 11 27.0625 C8.48496216 26.36782221 7.50124747 25.92602368 6 23.75390625 C5.34840228 22.36671579 4.73647537 20.95997321 4.171875 19.53515625 C3.16834481 17.38777172 2.0037123 16.13394445 0.25 14.5625 Z M23.25 17.5625 C23.20101562 18.20058594 23.15203125 18.83867187 23.1015625 19.49609375 C23.02679688 20.32238281 22.95203125 21.14867187 22.875 22 C22.77058594 23.23556641 22.77058594 23.23556641 22.6640625 24.49609375 C22.52742188 25.17800781 22.39078125 25.85992187 22.25 26.5625 C21.26 27.0575 21.26 27.0575 20.25 27.5625 C26.01830091 27.7722564 31.79677139 27.67817168 37.25 25.5625 C37.91 24.5725 38.57 23.5825 39.25 22.5625 C33.95201036 20.48114693 28.79436129 18.84958387 23.25 17.5625 Z " fill="#667ABF" transform="translate(12.75,12.4375)"/>
<path d="M0 0 C4.65834602 0.06645287 4.65834602 0.06645287 6.91796875 1.9609375 C10.42964605 7.25546636 11.86354735 13.43054679 13.25 19.5625 C13.91 19.5625 14.57 19.5625 15.25 19.5625 C15.37117188 19.01722656 15.49234375 18.47195312 15.6171875 17.91015625 C16.828125 12.4609375 18.0390625 7.01171875 19.25 1.5625 C21.23 1.5625 23.21 1.5625 25.25 1.5625 C24.816875 2.3359375 24.816875 2.3359375 24.375 3.125 C21.73114392 8.85335483 21.00514255 13.21970167 22.15625 19.3515625 C22.25 21.5625 22.25 21.5625 20.25 26.5625 C16.62 26.5625 12.99 26.5625 9.25 26.5625 C8.69570313 25.56347656 8.14140625 24.56445312 7.5703125 23.53515625 C6.83882662 22.23161089 6.10704018 20.92823416 5.375 19.625 C5.01019531 18.96564453 4.64539063 18.30628906 4.26953125 17.62695312 C2.39582102 13.98313631 2.39582102 13.98313631 -0.75 11.5625 C-0.85957031 12.27535156 -0.96914062 12.98820312 -1.08203125 13.72265625 C-2.91701058 24.80712491 -2.91701058 24.80712491 -5.75 29.5625 C-8.9375 31 -8.9375 31 -11.75 31.5625 C-11.56932983 30.66349976 -11.56932983 30.66349976 -11.38500977 29.74633789 C-10.48300837 25.24851423 -9.58942969 20.74933425 -8.71484375 16.24609375 C-8.20117188 13.62304688 -8.20117188 13.62304688 -7.6875 11 C-7.51412109 10.09958984 -7.34074219 9.19917969 -7.16210938 8.27148438 C-6.99388672 7.41748047 -6.82566406 6.56347656 -6.65234375 5.68359375 C-6.50273193 4.9145874 -6.35312012 4.14558105 -6.19897461 3.35327148 C-5.32301411 -0.14056772 -3.3072006 0.2299385 0 0 Z " fill="#1C3052" transform="translate(12.75,12.4375)"/>
<path d="M0 0 C1.45401747 3.9034026 0.57799278 7.01599437 -0.3125 11 C-0.57675781 12.216875 -0.84101562 13.43375 -1.11328125 14.6875 C-1.84108347 17.40633824 -2.61161009 19.57486479 -4 22 C-0.9334344 20.95940641 1.40646975 20.13384123 2.96386719 17.15869141 C3.71131806 14.8923755 4.31910939 12.63315291 4.875 10.3125 C5.08640625 9.51521484 5.2978125 8.71792969 5.515625 7.89648438 C6.0320141 5.93655303 6.51894913 3.9689029 7 2 C7.99 2.33 8.98 2.66 10 3 C10.85814529 5.15695979 11.68697516 7.32563124 12.5 9.5 C13.75698654 12.29239111 14.83023069 13.63469916 17 16 C25.06476628 18.82647233 34.74269497 17.35402045 43 16 C43 16.66 43 17.32 43 18 C33.9400212 20.14982548 25.24154826 20.20871753 16 20 C16 20.66 16 21.32 16 22 C17.98 22 19.96 22 22 22 C22 22.33 22 22.66 22 23 C19.03 23.66 16.06 24.32 13 25 C16.3 25.33 19.6 25.66 23 26 C23 26.66 23 27.32 23 28 C22.43603516 27.99476318 21.87207031 27.98952637 21.29101562 27.98413086 C18.69402211 27.96312733 16.09704656 27.95026638 13.5 27.9375 C12.1696875 27.92493164 12.1696875 27.92493164 10.8125 27.91210938 C5.44176914 27.89236404 0.31366337 28.21164107 -5 29 C-5.31962169 20.67799823 -5.23442628 13.71529001 -2 6 C-1.608125 4.824375 -1.21625 3.64875 -0.8125 2.4375 C-0.4103125 1.2309375 -0.4103125 1.2309375 0 0 Z M8 5 C7.79503906 5.90363281 7.59007812 6.80726562 7.37890625 7.73828125 C7.10949219 8.91777344 6.84007812 10.09726562 6.5625 11.3125 C6.29566406 12.48425781 6.02882813 13.65601563 5.75390625 14.86328125 C5 18 5 18 4 21 C4.76570312 20.76990234 4.76570312 20.76990234 5.546875 20.53515625 C8.7749338 19.83094597 11.95418001 19.65111796 15.25 19.4375 C16.51328125 19.35371094 17.7765625 19.26992188 19.078125 19.18359375 C20.04234375 19.12300781 21.0065625 19.06242187 22 19 C22 18.67 22 18.34 22 18 C20.9275 17.835 19.855 17.67 18.75 17.5 C16.23496216 16.80532221 15.25124747 16.36352368 13.75 14.19140625 C13.09840228 12.80421579 12.48647537 11.39747321 11.921875 9.97265625 C10.91834481 7.82527172 9.7537123 6.57144445 8 5 Z " fill="#7AB8DC" transform="translate(5,22)"/>
<path d="M0 0 C10.89 0 21.78 0 33 0 C33 2.31 33 4.62 33 7 C29.07142246 8.85131483 26.01224888 9.22004943 21.6875 9.125 C20.61886719 9.10695313 19.55023438 9.08890625 18.44921875 9.0703125 C17.64097656 9.04710937 16.83273438 9.02390625 16 9 C16 8.67 16 8.34 16 8 C21.445 7.01 21.445 7.01 27 6 C16.97732469 5.32376697 16.97732469 5.32376697 8 9 C7.67 9.33 7.34 9.66 7 10 C7 11.65 7 13.3 7 15 C12.445 16.98 12.445 16.98 18 19 C18 19.66 18 20.32 18 21 C13.39146203 20.27991594 9.32762591 18.68704061 5 17 C4.67 19.97 4.34 22.94 4 26 C3.34 26 2.68 26 2 26 C2.08378906 25.32453125 2.16757812 24.6490625 2.25390625 23.953125 C2.35574219 23.06109375 2.45757812 22.1690625 2.5625 21.25 C2.66691406 20.36828125 2.77132812 19.4865625 2.87890625 18.578125 C2.99584796 16.08839834 2.60593881 14.38434457 2 12 C2.93649525 7.62968884 4.03170553 4.3730619 7 1 C5.02 1 3.04 1 1 1 C0.8453125 2.9490625 0.8453125 2.9490625 0.6875 4.9375 C0.151692 9.90160353 -1.24930225 14.34248334 -3 19 C-3.66 19 -4.32 19 -5 19 C-8 13.375 -8 13.375 -8 10 C-6 11 -6 11 -4 13 C-2.68 8.71 -1.36 4.42 0 0 Z " fill="#9CA6B7" transform="translate(31,13)"/>
<path d="M0 0 C1.15628906 -0.01417969 2.31257813 -0.02835938 3.50390625 -0.04296875 C6.4375 0.1875 6.4375 0.1875 8.4375 2.1875 C4.1475 2.8475 -0.1425 3.5075 -4.5625 4.1875 C-4.5625 5.5075 -4.5625 6.8275 -4.5625 8.1875 C-3.73105469 8.29707031 -2.89960937 8.40664063 -2.04296875 8.51953125 C-0.95628906 8.67808594 0.13039063 8.83664063 1.25 9 C2.32894531 9.15082031 3.40789063 9.30164062 4.51953125 9.45703125 C7.53541071 10.21201044 8.68068166 10.66658601 10.4375 13.1875 C10.96577016 17.26272696 10.84653664 19.4638198 8.8125 23.0625 C5.99462024 25.58376084 4.15919726 25.93374791 0.4375 26.1875 C-0.2225 25.1975 -0.8825 24.2075 -1.5625 23.1875 C1.4075 21.8675 4.3775 20.5475 7.4375 19.1875 C6.1175 19.5175 4.7975 19.8475 3.4375 20.1875 C2.7775 20.1875 2.1175 20.1875 1.4375 20.1875 C1.1075 18.8675 0.7775 17.5475 0.4375 16.1875 C-0.5525 16.1875 -1.5425 16.1875 -2.5625 16.1875 C-2.5625 15.5275 -2.5625 14.8675 -2.5625 14.1875 C-4.1403125 14.0328125 -4.1403125 14.0328125 -5.75 13.875 C-9.49476161 13.19971512 -11.67184535 12.64017667 -14.5625 10.1875 C-15.1875 7.75 -15.1875 7.75 -14.5625 5.1875 C-9.94477756 0.69458087 -6.28202706 0.03509512 0 0 Z " fill="#20358E" transform="translate(51.5625,17.8125)"/>
<path d="M0 0 C1.15628906 -0.01417969 2.31257813 -0.02835938 3.50390625 -0.04296875 C6.4375 0.1875 6.4375 0.1875 8.4375 2.1875 C4.1475 2.8475 -0.1425 3.5075 -4.5625 4.1875 C-4.2325 5.8375 -3.9025 7.4875 -3.5625 9.1875 C-3.8925 10.1775 -4.2225 11.1675 -4.5625 12.1875 C-3.5725 12.5175 -2.5825 12.8475 -1.5625 13.1875 C-8.65182806 13.54797431 -8.65182806 13.54797431 -12.5625 12 C-14.5625 10.1875 -14.5625 10.1875 -15.1875 7.75 C-14.31433457 4.17002175 -12.59335568 3.16108044 -9.5625 1.1875 C-6.1971364 0.06571213 -3.5421245 0.01978841 0 0 Z " fill="#181E73" transform="translate(51.5625,17.8125)"/>
<path d="M0 0 C1.98 0 3.96 0 6 0 C5.566875 0.7734375 5.566875 0.7734375 5.125 1.5625 C2.48114392 7.29085483 1.75514255 11.65720167 2.90625 17.7890625 C3.02523507 20.59512708 2.16847871 22.47714824 1 25 C-2.70792809 25.28328822 -6.30204313 25.45269973 -10 25 C-12.26297338 22.54305747 -13 21.3203746 -13 18 C-10 19 -10 19 -8.8125 21.0625 C-8.4103125 22.0215625 -8.4103125 22.0215625 -8 23 C-6.02 23 -4.04 23 -2 23 C-1.34 20.03 -0.68 17.06 0 14 C-0.99 14.33 -1.98 14.66 -3 15 C-2.22225866 9.94468132 -1.14051606 4.98283716 0 0 Z " fill="#1D2C4B" transform="translate(32,14)"/>
<path d="M0 0 C0 2.31 0 4.62 0 7 C-3.92857754 8.85131483 -6.98775112 9.22004943 -11.3125 9.125 C-12.38113281 9.10695313 -13.44976562 9.08890625 -14.55078125 9.0703125 C-15.35902344 9.04710937 -16.16726562 9.02390625 -17 9 C-17 8.67 -17 8.34 -17 8 C-11.555 7.01 -11.555 7.01 -6 6 C-9.63 5.67 -13.26 5.34 -17 5 C-16.67 4.01 -16.34 3.02 -16 2 C-10.82393002 -0.52167512 -5.61441624 -0.19972232 0 0 Z " fill="#4D74BC" transform="translate(64,13)"/>
<path d="M0 0 C10.48298217 1.27066451 10.48298217 1.27066451 15.25 3.5625 C17.52961607 6.73767953 17.65415457 8.96861496 17.4140625 12.81640625 C16.77401675 16.19174185 15.5760121 17.75424586 13 20 C7.32910011 23.28912194 2.46183915 23.35104559 -4 23 C-4 22.67 -4 22.34 -4 22 C-3.34773438 21.89042969 -2.69546875 21.78085937 -2.0234375 21.66796875 C3.08198449 20.74176388 7.53487439 19.79070351 12 17 C14.47666082 13.28500878 14.54886514 11.39092112 14 7 C10.23367906 3.47666751 4.93542179 2.913967 0 2 C0 1.34 0 0.68 0 0 Z " fill="#8B8EC3" transform="translate(47,24)"/>
<path d="M0 0 C0.99 0.33 1.98 0.66 3 1 C3 2.32 3 3.64 3 5 C4.423125 4.2265625 4.423125 4.2265625 5.875 3.4375 C6.90625 2.963125 7.9375 2.48875 9 2 C9.66 2.33 10.32 2.66 11 3 C8.31158141 5.25245881 6.35358125 6.88213958 3 8 C3 8.99 3 9.98 3 11 C3 11.33 3 11.66 3 12 C0.03 12 -2.94 12 -6 12 C-6 11.34 -6 10.68 -6 10 C-6.66 10 -7.32 10 -8 10 C-8 9.34 -8 8.68 -8 8 C-6.02 7.67 -4.04 7.34 -2 7 C-2 6.34 -2 5.68 -2 5 C-0.5 3.375 -0.5 3.375 1 2 C0.67 1.34 0.34 0.68 0 0 Z " fill="#5045AF" transform="translate(50,33)"/>
<path d="M0 0 C0.99 0.33 1.98 0.66 3 1 C4.05797765 3.13895482 5.04851848 5.31159251 6 7.5 C7.72299487 11.12453091 8.96509288 13.61417325 12.90234375 15.08203125 C15.67363359 15.29246381 18.23985812 15.30446411 21 15 C21 15.33 21 15.66 21 16 C16.94500985 16.34429162 13.04410203 16.52373551 9 16 C6.4375 13.3125 6.4375 13.3125 5 10 C4.4225 9.05125 3.845 8.1025 3.25 7.125 C2.63125 6.073125 2.63125 6.073125 2 5 C1.82984375 5.77085938 1.6596875 6.54171875 1.484375 7.3359375 C1.24203125 8.33882812 0.9996875 9.34171875 0.75 10.375 C0.51796875 11.37273438 0.2859375 12.37046875 0.046875 13.3984375 C-1 16 -1 16 -5 18 C-3.35 12.06 -1.7 6.12 0 0 Z " fill="#A1A6B2" transform="translate(12,24)"/>
<path d="M0 0 C1.31058754 3.93176263 0.46016673 6.02381655 -0.625 10 C-0.94726562 11.2375 -1.26953125 12.475 -1.6015625 13.75 C-3.19676822 17.45729374 -4.34387041 18.43143967 -8 20 C-8.66 20 -9.32 20 -10 20 C-9.34 16.7 -8.68 13.4 -8 10 C-7.01 9.67 -6.02 9.34 -5 9 C-4.34 9.33 -3.68 9.66 -3 10 C-2.814375 8.9171875 -2.814375 8.9171875 -2.625 7.8125 C-2.0095069 5.04278106 -1.11555626 2.6029646 0 0 Z " fill="#101734" transform="translate(11,24)"/>
<path d="M0 0 C0 0.66 0 1.32 0 2 C-0.56396484 1.99476318 -1.12792969 1.98952637 -1.70898438 1.98413086 C-4.30597789 1.96312733 -6.90295344 1.95026638 -9.5 1.9375 C-10.8303125 1.92493164 -10.8303125 1.92493164 -12.1875 1.91210938 C-17.55823086 1.89236404 -22.68633663 2.21164107 -28 3 C-28 2.01 -28 1.02 -28 0 C-18.36747815 -2.70459577 -9.70084542 -1.47844069 0 0 Z " fill="#5882C6" transform="translate(28,48)"/>
<path d="M0 0 C3.44986238 -0.48231086 6.57187455 -0.70025733 10 0 C12.44482908 2.30783435 13.94300742 4.80980421 15 8 C14.67 8.66 14.34 9.32 14 10 C11 6.25 11 6.25 11 4 C8.36 3.67 5.72 3.34 3 3 C2.67 3.66 2.34 4.32 2 5 C1.67 4.67 1.34 4.34 1 4 C0.34 5.65 -0.32 7.3 -1 9 C-2.0326802 6.21176345 -2.04509293 5.1322726 -1.0625 2.25 C-0.711875 1.5075 -0.36125 0.765 0 0 Z " fill="#7788A0" transform="translate(8,13)"/>
<path d="M0 0 C0.33 0 0.66 0 1 0 C1 1.65 1 3.3 1 5 C1.66 5 2.32 5 3 5 C3.05027344 5.61359375 3.10054687 6.2271875 3.15234375 6.859375 C3.82969396 9.26165285 3.82969396 9.26165285 6.50390625 10.265625 C8.01791016 10.75289062 8.01791016 10.75289062 9.5625 11.25 C10.57441406 11.58515625 11.58632813 11.9203125 12.62890625 12.265625 C13.80259766 12.62914062 13.80259766 12.62914062 15 13 C15 13.66 15 14.32 15 15 C10.39146203 14.27991594 6.32762591 12.68704061 2 11 C1.67 13.97 1.34 16.94 1 20 C0.34 20 -0.32 20 -1 20 C-0.91621094 19.32453125 -0.83242188 18.6490625 -0.74609375 17.953125 C-0.64425781 17.06109375 -0.54242188 16.1690625 -0.4375 15.25 C-0.33308594 14.36828125 -0.22867188 13.4865625 -0.12109375 12.578125 C-0.0041814 10.08902346 -0.36564171 8.3788436 -1 6 C-0.72949547 3.99053778 -0.40632091 1.98645776 0 0 Z " fill="#8F96B5" transform="translate(34,19)"/>
<path d="M0 0 C1.8871875 0.061875 1.8871875 0.061875 3.8125 0.125 C0.8125 2.125 0.8125 2.125 -2.1875 2.125 C-2.5175 3.115 -2.8475 4.105 -3.1875 5.125 C-4.96484375 6.2578125 -4.96484375 6.2578125 -7.125 7.25 C-7.83527344 7.58257813 -8.54554687 7.91515625 -9.27734375 8.2578125 C-9.90769531 8.54398438 -10.53804687 8.83015625 -11.1875 9.125 C-12.1775 9.62 -12.1775 9.62 -13.1875 10.125 C-13 7.8125 -13 7.8125 -12.1875 5.125 C-9.8125 3.4375 -9.8125 3.4375 -7.1875 2.125 C-4.09861478 0.06574319 -3.47814073 -0.1140374 0 0 Z " fill="#53AEDA" transform="translate(50.1875,12.875)"/>
<path d="M0 0 C0.33 0.99 0.66 1.98 1 3 C-0.09918816 3.98475214 -1.2045602 4.96260473 -2.3125 5.9375 C-3.23482422 6.75541016 -3.23482422 6.75541016 -4.17578125 7.58984375 C-7.31444141 10.01608854 -10.06429887 10.12082243 -13.88671875 10.09765625 C-14.82451172 10.09443359 -15.76230469 10.09121094 -16.72851562 10.08789062 C-17.70498047 10.07951172 -18.68144531 10.07113281 -19.6875 10.0625 C-21.16959961 10.05573242 -21.16959961 10.05573242 -22.68164062 10.04882812 C-25.12115474 10.03704303 -27.56054689 10.02059011 -30 10 C-30 9.67 -30 9.34 -30 9 C-28.97261719 8.97421875 -27.94523437 8.9484375 -26.88671875 8.921875 C-18.58129114 8.619549 -10.39224299 8.25695894 -3 4 C-1.2219415 1.97001137 -1.2219415 1.97001137 0 0 Z " fill="#1B2E8B" transform="translate(63,39)"/>
<path d="M0 0 C0 0.66 0 1.32 0 2 C-3.82745451 3.74685308 -7.12442723 4.34886333 -11.3125 4.625 C-12.38113281 4.69976563 -13.44976562 4.77453125 -14.55078125 4.8515625 C-15.76314453 4.92503906 -15.76314453 4.92503906 -17 5 C-16.67 4.01 -16.34 3.02 -16 2 C-10.82393002 -0.52167512 -5.61441624 -0.19972232 0 0 Z " fill="#487AC6" transform="translate(64,13)"/>
<path d="M0 0 C1.15628906 -0.01417969 2.31257813 -0.02835938 3.50390625 -0.04296875 C6.4375 0.1875 6.4375 0.1875 8.4375 2.1875 C4.1475 2.8475 -0.1425 3.5075 -4.5625 4.1875 C-4.8925 5.5075 -5.2225 6.8275 -5.5625 8.1875 C-6.2225 7.5275 -6.8825 6.8675 -7.5625 6.1875 C-7.5625 5.1975 -7.5625 4.2075 -7.5625 3.1875 C-8.2225 2.5275 -8.8825 1.8675 -9.5625 1.1875 C-6.1971364 0.06571213 -3.5421245 0.01978841 0 0 Z " fill="#2B479A" transform="translate(51.5625,17.8125)"/>
<path d="M0 0 C3.27075883 -0.0580476 6.54138524 -0.09361165 9.8125 -0.125 C10.74126953 -0.14175781 11.67003906 -0.15851562 12.62695312 -0.17578125 C13.51962891 -0.18222656 14.41230469 -0.18867187 15.33203125 -0.1953125 C16.15421143 -0.20578613 16.9763916 -0.21625977 17.82348633 -0.22705078 C20 0 20 0 23 2 C19.38026598 3.31626692 16.90432869 4 13 4 C13 3.34 13 2.68 13 2 C11.96939453 2.03480469 11.96939453 2.03480469 10.91796875 2.0703125 C9.56638672 2.09738281 9.56638672 2.09738281 8.1875 2.125 C7.29417969 2.14820313 6.40085937 2.17140625 5.48046875 2.1953125 C3 2 3 2 0 0 Z " fill="#2157B2" transform="translate(15,46)"/>
<path d="M0 0 C0.33 0 0.66 0 1 0 C1.31215868 3.98002315 1.36368076 6.3565648 -0.625 9.875 C-3.44287976 12.39626084 -5.27830274 12.74624791 -9 13 C-9.66 12.01 -10.32 11.02 -11 10 C-8.03 8.68 -5.06 7.36 -2 6 C-2 5.01 -2 4.02 -2 3 C-1.34 3 -0.68 3 0 3 C0 2.01 0 1.02 0 0 Z " fill="#472A98" transform="translate(61,31)"/>
<path d="M0 0 C1.65 0.33 3.3 0.66 5 1 C5 2.32 5 3.64 5 5 C4.34 5 3.68 5 3 5 C3 5.66 3 6.32 3 7 C1.02 7.66 -0.96 8.32 -3 9 C-2.01 6.03 -1.02 3.06 0 0 Z " fill="#12176A" transform="translate(56,29)"/>
<path d="M0 0 C1.45401747 3.9034026 0.57799278 7.01599437 -0.3125 11 C-0.57675781 12.216875 -0.84101562 13.43375 -1.11328125 14.6875 C-1.84108347 17.40633824 -2.61161009 19.57486479 -4 22 C-3.34 22.33 -2.68 22.66 -2 23 C-2.99 23 -3.98 23 -5 23 C-5.34788783 16.62205649 -4.24234523 11.93948029 -2 6 C-1.608125 4.824375 -1.21625 3.64875 -0.8125 2.4375 C-0.4103125 1.2309375 -0.4103125 1.2309375 0 0 Z " fill="#959AA8" transform="translate(5,22)"/>
<path d="M0 0 C0.99 0.33 1.98 0.66 3 1 C3 2.32 3 3.64 3 5 C3.94875 4.484375 4.8975 3.96875 5.875 3.4375 C6.90625 2.963125 7.9375 2.48875 9 2 C9.66 2.33 10.32 2.66 11 3 C7.11690718 6.64775386 4.28798182 7.58525633 -1 8 C-1.33 7.01 -1.66 6.02 -2 5 C-1.01 4.01 -0.02 3.02 1 2 C0.67 1.34 0.34 0.68 0 0 Z " fill="#645EA2" transform="translate(50,33)"/>
<path d="M0 0 C0.66 0.33 1.32 0.66 2 1 C1.60440725 3.46346397 1.18483013 5.91843393 0.75 8.375 C0.64042969 9.07367188 0.53085938 9.77234375 0.41796875 10.4921875 C0.046875 12.5234375 0.046875 12.5234375 -1 16 C-2.98 16.99 -2.98 16.99 -5 18 C-3.35 12.06 -1.7 6.12 0 0 Z " fill="#8A91A1" transform="translate(12,24)"/>
<path d="M0 0 C1.5625 1.25 1.5625 1.25 3 3 C2.75 4.9375 2.75 4.9375 2 7 C1.814375 7.7425 1.62875 8.485 1.4375 9.25 C1.293125 9.8275 1.14875 10.405 1 11 C-0.32 10.67 -1.64 10.34 -3 10 C-2.69201674 8.51988629 -2.378482 7.04092675 -2.0625 5.5625 C-1.88847656 4.73878906 -1.71445313 3.91507813 -1.53515625 3.06640625 C-1 1 -1 1 0 0 Z " fill="#1A2949" transform="translate(7,23)"/>
<path d="M0 0 C4.92127034 -0.16682272 8.50343896 -0.24828052 13 2 C11 4 11 4 8.6171875 4.1953125 C7.71226563 4.17210937 6.80734375 4.14890625 5.875 4.125 C4.50988281 4.09792969 4.50988281 4.09792969 3.1171875 4.0703125 C2.41851563 4.04710937 1.71984375 4.02390625 1 4 C0.67 2.68 0.34 1.36 0 0 Z " fill="#4889CC" transform="translate(21,42)"/>
<path d="M0 0 C-1 3 -1 3 -3.9375 4.6875 C-8.53650456 6.52710182 -13.12631335 6.26476769 -18 6 C-18 5.67 -18 5.34 -18 5 C-17.34773438 4.89042969 -16.69546875 4.78085937 -16.0234375 4.66796875 C-10.79488977 3.7194269 -4.9112504 0 0 0 Z " fill="#9694CC" transform="translate(61,41)"/>
<path d="M0 0 C0.78375 0.04125 1.5675 0.0825 2.375 0.125 C2.375 0.785 2.375 1.445 2.375 2.125 C3.035 2.125 3.695 2.125 4.375 2.125 C4.375 2.785 4.375 3.445 4.375 4.125 C6.355 4.125 8.335 4.125 10.375 4.125 C10.375 4.455 10.375 4.785 10.375 5.125 C7.075 5.125 3.775 5.125 0.375 5.125 C0.375 4.135 0.375 3.145 0.375 2.125 C-1.275 2.125 -2.925 2.125 -4.625 2.125 C-2.625 0.125 -2.625 0.125 0 0 Z " fill="#535DBC" transform="translate(39.625,40.875)"/>
<path d="M0 0 C1.98 0 3.96 0 6 0 C5.71125 0.515625 5.4225 1.03125 5.125 1.5625 C3.71219973 4.62356725 2.8751483 7.74944918 2 11 C1.67 11 1.34 11 1 11 C0.67 7.37 0.34 3.74 0 0 Z " fill="#2F4669" transform="translate(32,14)"/>
<path d="M0 0 C-0.56589844 0.30292969 -1.13179687 0.60585937 -1.71484375 0.91796875 C-6.41581954 3.40988637 -6.41581954 3.40988637 -9 7.8125 C-9 8.534375 -9 9.25625 -9 10 C-9.66 10 -10.32 10 -11 10 C-11.5 7.3125 -11.5 7.3125 -11 4 C-7.57531354 0.83875096 -4.58326352 -1.52775451 0 0 Z " fill="#A6DAEB" transform="translate(46,14)"/>
<path d="M0 0 C1.32 0.99 2.64 1.98 4 3 C3.67 3.99 3.34 4.98 3 6 C3.99 6.33 4.98 6.66 6 7 C3.36 7 0.72 7 -2 7 C-1.34 4.69 -0.68 2.38 0 0 Z " fill="#17237C" transform="translate(44,24)"/>
<path d="M0 0 C3 1 3 1 4.1875 3.0625 C4.455625 3.701875 4.72375 4.34125 5 5 C9.14093698 5.20970559 9.14093698 5.20970559 13 4 C13 4.99 13 5.98 13 7 C9.62112287 7.28527105 6.36826645 7.45018698 3 7 C0.81817659 4.56149148 0 3.2678851 0 0 Z " fill="#0A1535" transform="translate(19,32)"/>
<path d="M0 0 C0.99 0.33 1.98 0.66 3 1 C2.95875 1.78375 2.9175 2.5675 2.875 3.375 C2.71271266 6.16116119 2.71271266 6.16116119 5 8 C0.125 7.125 0.125 7.125 -1 6 C-1.125 3.5 -1.125 3.5 -1 1 C-0.67 0.67 -0.34 0.34 0 0 Z " fill="#0C0D5A" transform="translate(38,22)"/>
<path d="M0 0 C3.96 0 7.92 0 12 0 C7.60171741 2.1991413 4.81449408 2.51855059 0 3 C0 2.01 0 1.02 0 0 Z " fill="#6B96D0" transform="translate(0,48)"/>
<path d="M0 0 C1.21065165 3.63195496 0.62784815 5.06531629 -0.4375 8.6875 C-0.86869141 10.17830078 -0.86869141 10.17830078 -1.30859375 11.69921875 C-1.53675781 12.45847656 -1.76492188 13.21773437 -2 14 C-3.48438902 8.72093227 -2.12696235 4.96291214 0 0 Z " fill="#112141" transform="translate(11,24)"/>
<path d="M0 0 C0.66 0.33 1.32 0.66 2 1 C2 1.99 2 2.98 2 4 C-0.5 5.6875 -0.5 5.6875 -3 7 C-2.25 2.25 -2.25 2.25 0 0 Z " fill="#63BBDD" transform="translate(40,16)"/>
<path d="M0 0 C0 0.33 0 0.66 0 1 C-3.61973402 2.31626692 -6.09567131 3 -10 3 C-10 2.34 -10 1.68 -10 1 C-6.78548731 -0.60725635 -3.56387464 -0.05748185 0 0 Z " fill="#325CB1" transform="translate(38,47)"/>
</svg>
